<svg width="122" height="39" viewBox="0 0 122 39" fill="none" xmlns="http://www.w3.org/2000/svg">
<path d="M52.5379 21.5054C50.1856 21.5054 48.6664 23.2238 48.6664 25.7611C48.6664 28.3143 50.1688 29.9841 52.422 29.9841C54.7574 29.9841 56.2766 28.2984 56.2766 25.7611C56.2766 23.1751 54.7919 21.5054 52.5379 21.5054ZM52.5043 28.7986C51.1215 28.7986 50.0847 27.5645 50.0847 25.7116C50.0847 23.8931 51.0028 22.6749 52.4547 22.6749C53.8403 22.6749 54.8601 23.9258 54.8601 25.7788C54.8601 27.615 54.0076 28.7986 52.5043 28.7986ZM101.504 18.6697C101.02 18.6697 100.637 19.0549 100.637 19.5391C100.637 20.0225 101.02 20.4067 101.504 20.4067C101.986 20.4067 102.371 20.0225 102.371 19.5391C102.371 19.0549 101.986 18.6697 101.504 18.6697ZM44.6799 28.6826C42.2249 28.6826 40.6889 26.9129 40.6889 24.1932C40.6889 21.4054 42.5259 19.7533 44.7959 19.7533C46.3655 19.7533 47.35 20.42 47.4837 20.5041L48.1344 19.471C48.0006 19.3355 46.9162 18.436 44.7135 18.436C41.6424 18.436 39.1537 20.6042 39.1537 24.3269C39.1537 27.9134 41.5078 30.0168 44.4957 30.0168C46.7498 30.0168 48.1176 28.9828 48.2344 28.85L47.5846 27.8151C47.4669 27.8816 46.2814 28.6826 44.6799 28.6826ZM107.613 21.5054C105.26 21.5054 103.742 23.2238 103.742 25.7611C103.742 28.3143 105.243 29.9841 107.497 29.9841C109.834 29.9841 111.351 28.2984 111.351 25.7611C111.351 23.1751 109.868 21.5054 107.613 21.5054ZM107.58 28.7986C106.194 28.7986 105.161 27.5645 105.161 25.7116C105.161 23.8931 106.078 22.6749 107.531 22.6749C108.915 22.6749 109.935 23.9258 109.935 25.7788C109.935 27.615 109.082 28.7986 107.58 28.7986ZM116.628 21.5054C115.258 21.5054 114.241 22.2411 114.105 22.3243V21.7232H112.839V29.7999H114.256V23.4097C114.323 23.3582 115.341 22.7068 116.377 22.7068C116.877 22.7068 117.294 22.8917 117.511 23.1078C117.927 23.5257 117.946 24.1932 117.946 25.2105V29.7999H119.362V25.1113C119.362 23.8099 119.33 22.9741 118.562 22.2066C118.312 21.9569 117.744 21.5054 116.628 21.5054ZM66.055 21.5054C64.8377 21.5054 63.9187 22.0224 63.2521 22.4403C62.8838 21.9392 62.2817 21.5054 61.2654 21.5054C59.9967 21.5054 58.8954 22.2562 58.7954 22.3243V21.7232H57.5258V29.7999H58.945V23.3752C59.0619 23.3097 60.0286 22.7068 61.0149 22.7068C61.4974 22.7068 61.8497 22.8581 62.0657 23.0751C62.4836 23.5089 62.4677 24.2428 62.4677 25.3273V29.7999H63.87V25.2777C63.87 24.6261 63.87 23.7426 63.7345 23.3911C63.9187 23.2752 64.8863 22.7068 65.8708 22.7068C66.355 22.7068 66.7233 22.8413 66.973 23.1255C67.3909 23.5753 67.3749 24.5766 67.3749 25.0777V29.7999H68.7932V25.1113C68.7932 23.8099 68.7596 22.9741 67.9902 22.2066C67.7405 21.9569 67.1722 21.5054 66.0549 21.5054H66.055ZM83.3938 29.7999H84.8121V21.7223H83.3938V29.7999ZM84.095 18.6697C83.6107 18.6697 83.2256 19.0549 83.2256 19.5391C83.2256 20.0225 83.6107 20.4067 84.095 20.4067C84.5775 20.4067 84.9617 20.0225 84.9617 19.5391C84.9617 19.0549 84.5775 18.6697 84.095 18.6697ZM78.869 21.5054C77.6526 21.5054 76.7336 22.0224 76.0652 22.4403C75.6995 21.9392 75.0984 21.5054 74.0812 21.5054C72.8116 21.5054 71.7094 22.2562 71.6094 22.3243V21.7232H70.3407V29.7999H71.7599V23.3752C71.8776 23.3097 72.8453 22.7068 73.8289 22.7068C74.314 22.7068 74.6655 22.8581 74.8815 23.0751C75.2994 23.5089 75.2826 24.2428 75.2826 25.3273V29.7999H76.6849V25.2777C76.6849 24.6261 76.6849 23.7426 76.5494 23.3911C76.7336 23.2752 77.7021 22.7068 78.6865 22.7068C79.169 22.7068 79.5373 22.8413 79.7887 23.1255C80.2057 23.5753 80.188 24.5766 80.188 25.0777V29.7999H81.6072V25.1113C81.6072 23.8099 81.5736 22.9741 80.806 22.2066C80.5563 21.9569 79.9888 21.5054 78.8689 21.5054H78.869ZM88.0992 23.709C88.0992 23.1078 88.6003 22.6236 89.5839 22.6236C90.5693 22.6236 91.405 23.1078 91.5041 23.1751L92.0371 22.2234C91.9538 22.1569 91.0535 21.5054 89.4847 21.5054C87.8327 21.5054 86.6632 22.4244 86.6632 23.7913C86.6632 26.3622 90.6516 25.9948 90.6516 27.6477C90.6516 28.3657 89.969 28.85 89.0996 28.85C87.9328 28.85 87.1147 28.333 86.9465 28.2321L86.4127 29.2165C86.5136 29.3006 87.5813 30.0168 89.1828 30.0168C90.7702 30.0168 92.1389 29.1165 92.1389 27.5477C92.1389 24.9776 88.0992 25.2618 88.0992 23.709ZM100.803 29.7999H102.222V21.7223H100.803V29.7999ZM94.9781 23.709C94.9781 23.1078 95.4774 22.6236 96.4637 22.6236C97.4473 22.6236 98.2821 23.1078 98.3839 23.1751L98.916 22.2234C98.8337 22.1569 97.9324 21.5054 96.3636 21.5054C94.7116 21.5054 93.543 22.4244 93.543 23.7913C93.543 26.3622 97.5305 25.9948 97.5305 27.6477C97.5305 28.3657 96.8488 28.85 95.9794 28.85C94.8117 28.85 93.9919 28.333 93.8254 28.2321L93.2916 29.2165C93.3935 29.3006 94.4602 30.0168 96.0644 30.0168C97.6474 30.0168 99.016 29.1165 99.016 27.5477C99.016 24.9776 94.9781 25.2618 94.9781 23.709Z" fill="#596876"/>
<path d="M44.6302 15.8251C47.1188 15.8251 48.5539 14.5901 48.6867 14.4573L47.7137 12.8912C47.533 12.9903 46.3609 13.7978 44.909 13.7978C42.8161 13.7978 41.4811 12.298 41.4811 10.0059C41.4811 7.66606 43.0304 6.26283 45.0259 6.26283C46.6248 6.26283 47.5163 7.02155 47.6473 7.10389L48.6539 5.57229C48.538 5.45635 47.4003 4.30273 44.9276 4.30273C41.6458 4.30273 39.1394 6.49479 39.1394 10.1556C39.1394 13.6827 41.5307 15.8251 44.6302 15.8251ZM49.3241 13.1373C49.3241 14.6715 50.3289 15.7428 51.9446 15.7428C53.2301 15.7428 54.0871 15.0832 54.2358 14.9841V15.5622H56.1658V10.6982C56.1658 9.64295 56.1834 8.80282 55.5054 8.12642C54.7139 7.33584 53.5444 7.22072 52.8521 7.22072C50.9885 7.22072 49.8836 7.99365 49.7694 8.0928L50.5095 9.51193C50.6265 9.44543 51.5985 8.9179 52.6706 8.9179C53.2806 8.9179 53.6427 9.0667 53.8233 9.24721C54.0544 9.4791 54.0712 9.70938 54.0712 10.2034H53.8401C52.8521 10.2034 49.3241 10.253 49.3241 13.1373ZM54.0712 13.5667C53.9728 13.6164 53.4275 14.0616 52.521 14.0616C51.9783 14.0616 51.2691 13.8305 51.2691 12.9904C51.2691 11.9678 52.2899 11.7208 53.7259 11.7208H54.0712V13.5667Z" fill="#596876"/>
<path d="M59.4399 10.2375C59.6878 9.87539 60.3615 9.06711 61.7143 9.06711C61.8284 9.06711 62.1427 9.09977 62.2091 9.11659L62.72 7.43358C62.6713 7.41852 62.3738 7.22102 61.7948 7.22102C60.1809 7.22102 59.176 8.35688 59.1088 8.47285V7.4512H57.2142V15.5625H59.4399V10.2375ZM66.4427 7.22125C64.1365 7.22125 62.5527 9.06714 62.5527 11.5566C62.5527 13.9142 63.955 15.792 66.5915 15.792C68.3895 15.792 69.6254 14.9518 69.6732 14.9031L68.9491 13.4848C68.602 13.6495 67.8105 14.0621 66.788 14.0621C65.1732 14.0621 64.6783 12.8262 64.7119 12.2321H70.0539C70.0539 12.1179 70.0876 11.886 70.0876 11.5407C70.0876 8.90159 68.8153 7.22125 66.4427 7.22125H66.4427ZM64.6951 10.6324C64.8597 9.62664 65.4848 8.86972 66.4923 8.86972C67.861 8.86972 68.0256 10.1888 68.0256 10.6324H64.6951ZM86.4243 15.792C87.5769 15.792 88.5844 15.051 88.7155 14.9518V15.5627H90.61V7.45143H88.3861V13.3866C88.2534 13.485 87.5938 13.8974 86.8846 13.8974C86.3587 13.8974 86.1109 13.6999 86.0126 13.6008C85.7151 13.3034 85.6656 12.7775 85.6656 11.7213V7.45143H83.4399V11.8205C83.4399 12.8749 83.4062 14.0948 84.3137 15.0023C84.8413 15.529 85.5673 15.792 86.4243 15.792ZM96.4062 14.9846V15.5627H98.3344V10.6988C98.3344 9.64348 98.352 8.80329 97.6766 8.12691C96.8843 7.33633 95.7148 7.22125 95.0224 7.22125C93.1589 7.22125 92.054 7.99414 91.9389 8.09329L92.6799 9.51246C92.7968 9.44596 93.768 8.91839 94.8392 8.91839C95.451 8.91839 95.813 9.06719 95.9928 9.2477C96.2246 9.47959 96.2415 9.70987 96.2415 10.2039H96.0103C95.0223 10.2039 91.4943 10.2535 91.4943 13.1378C91.4943 14.672 92.4992 15.7433 94.1149 15.7433C95.4004 15.7433 96.2574 15.0838 96.4061 14.9846H96.4062ZM93.4394 12.9909C93.4394 11.9683 94.461 11.7213 95.8952 11.7213H96.2414V13.5672C96.143 13.6169 95.5978 14.0621 94.6912 14.0621C94.1477 14.0621 93.4394 13.831 93.4394 12.9909ZM101.649 3.62598H99.4232V15.5627H101.649V3.62598ZM103.922 6.44482C104.628 6.44482 105.19 5.88531 105.19 5.17618C105.19 4.46794 104.628 3.90662 103.922 3.90662C103.212 3.90662 102.65 4.46794 102.65 5.17618C102.65 5.88531 103.212 6.44482 103.922 6.44482ZM105.041 7.45143H102.816V15.5627H105.041V7.45143ZM110.797 13.9293C109.822 13.9293 109.773 13.1883 109.773 12.5455V9.29729H112.082V7.45143H109.773V5.19299H107.55V7.45143H106.147V9.29729H107.55V12.4632C107.55 13.6008 107.55 14.3746 108.242 15.0669C108.785 15.6114 109.609 15.792 110.334 15.792C111.537 15.792 112.313 15.3148 112.376 15.2652L111.818 13.7327C111.67 13.7822 111.306 13.9293 110.797 13.9293ZM114.32 17.5892C113.677 17.5892 113.185 17.359 113.069 17.3103L112.409 18.8914C112.475 18.9251 113.249 19.4023 114.436 19.4023C115.772 19.4023 116.462 18.9083 116.81 18.5621C117.385 17.9858 117.749 17.2439 118.376 15.6441L121.591 7.45139H119.398L117.37 13.1378L115.193 7.45139H112.837L116.233 15.5627C116.101 15.9248 115.82 16.7817 115.425 17.1775C115.161 17.4404 114.815 17.5892 114.32 17.5892ZM82.4597 9.98871C82.4597 6.68204 80.342 4.2979 77.0823 4.2979C73.889 4.2979 71.7067 6.59794 71.7067 9.98871C71.7067 13.4406 73.8412 15.8044 76.9911 15.8584V15.8593C76.9911 15.8593 77.1158 15.8617 77.1266 15.8617C78.6556 15.8971 79.7135 16.4098 80.3881 17.242C80.6175 17.0914 82.2765 15.6625 82.2765 15.6625C82.2765 15.6625 81.7019 14.9747 80.3722 14.7958C81.6692 13.7883 82.4598 12.1169 82.4598 9.98855L82.4597 9.98871ZM77.132 13.8928C75.395 13.8928 74.0723 12.455 74.0723 10.139C74.0723 7.83901 75.2294 6.21802 77.0009 6.21802C78.8521 6.21802 80.0942 7.78856 80.0942 9.97262C80.0942 11.7432 79.417 13.8928 77.132 13.8928Z" fill="#596876"/>
<path d="M27.737 31.0518C32.0999 27.9603 34.9506 22.8759 34.9506 17.1214C34.9506 7.6981 27.3112 0.0595703 17.8888 0.0595703C8.46373 0.0595703 0.825226 7.6981 0.825226 17.1214C0.825226 26.5456 8.46373 34.1841 17.8888 34.1841H18.374C22.9121 34.2611 26.031 35.7679 28.023 38.2176C28.6923 37.7767 33.5279 33.6131 33.5279 33.6131C33.5279 33.6131 31.7962 31.5219 27.737 31.0518ZM17.5117 29.8177C21.8382 28.9368 25.3706 25.8533 26.9252 21.7781C26.9164 21.7731 26.9049 21.7756 26.8933 21.7831C25.205 25.0402 21.8099 27.2668 17.8888 27.2668C12.283 27.2668 7.74131 22.7242 7.74131 17.1211C7.74131 11.5179 12.283 6.97624 17.8888 6.97624C21.8099 6.97624 25.2068 9.20457 26.8951 12.4616C26.9057 12.4717 26.9172 12.4742 26.9252 12.4642C25.3706 8.38908 21.8373 5.30639 17.5116 4.4246C17.6533 4.41959 17.7932 4.41457 17.9357 4.41457C24.8846 4.41457 30.516 10.1036 30.516 17.1206C30.516 24.1394 24.8846 29.8293 17.9357 29.8293C17.7932 29.8293 17.6533 29.8218 17.5116 29.8168" fill="#893277"/>
</svg>
