<svg width="167" height="29" viewBox="0 0 167 29" fill="none" xmlns="http://www.w3.org/2000/svg">
<path d="M49.3302 13.82V29.0001H44.9432V13.82H40.2574C39.4382 13.82 38.774 13.152 38.774 12.3279V9.69482H55.4995V12.3279C55.4995 13.152 54.8353 13.82 54.016 13.82H49.3302Z" fill="#F3F2F0"/>
<path d="M123.464 13.82V29.0001H119.077V13.82H114.391C113.571 13.82 112.907 13.152 112.907 12.3279V9.69482H129.633V12.3279C129.633 13.152 128.969 13.82 128.149 13.82H123.464Z" fill="#F3F2F0"/>
<path d="M68.2186 21.8295C72.0847 21.7467 74.6621 19.3474 74.6621 15.7622C74.6621 12.1494 72.0573 9.69482 67.9444 9.69482H58.3487V29H62.7357V21.8295L69.5896 29H75.3476L68.2186 21.8295ZM62.7357 18.2442V13.418H67.9444C69.1783 13.418 70.2751 14.0936 70.2751 15.8311C70.2751 17.5685 69.1783 18.2442 67.9444 18.2442H62.7357Z" fill="#F3F2F0"/>
<path d="M92.531 9.69482V13.418H82.3859V17.279H91.9826V21.0021H82.3859V25.2768H92.531V29H77.9989V9.69482H92.531Z" fill="#F3F2F0"/>
<path d="M147.014 9.69482V13.418H136.869V17.279H146.466V21.0021H136.869V25.2768H147.014V29H132.482V9.69482H147.014Z" fill="#F3F2F0"/>
<path d="M106.934 9.69482H102.547L94.7327 29H99.2567L100.765 25.1389H108.716L110.224 29H114.748L106.934 9.69482ZM102.218 21.4158L104.672 14.3832H104.809L107.263 21.4158H102.218Z" fill="#F3F2F0"/>
<path d="M157.678 29H149.863V9.69482H157.678C163.271 9.69482 167 13.3004 167 19.3474C167 25.3944 163.271 29 157.678 29ZM157.403 13.418H154.25V25.2768H157.403C160.721 25.2768 162.613 23.3463 162.613 19.3474C162.613 15.3485 160.721 13.418 157.403 13.418Z" fill="#F3F2F0"/>
<path d="M22.2539 9.6949C21.2042 12.2212 18.7243 13.9965 15.8319 13.9965C12.9396 13.9965 10.4597 12.2212 9.41 9.6949H0V14.5212C0 17.1867 2.14829 19.3476 4.79835 19.3476H10.6834V29.0002H15.8319H20.9804V19.3475H26.8655C29.5156 19.3475 31.6639 17.1867 31.6639 14.5212V9.69482H22.2539V9.6949Z" fill="#F3F2F0"/>
<path d="M22.7896 6.99814C22.7896 3.13318 19.6746 0 15.832 0C11.9895 0 8.87445 3.13318 8.87445 6.99814C8.87445 7.95389 9.06522 8.86473 9.41009 9.69468H22.254C22.5988 8.86473 22.7896 7.95389 22.7896 6.99814Z" fill="#F3F2F0"/>
</svg>
