<svg width="143" height="25" viewBox="0 0 143 25" fill="none" xmlns="http://www.w3.org/2000/svg">
<path d="M42.2409 11.9137V24.9999H38.4843V11.9137H34.4719C33.7704 11.9137 33.2017 11.3378 33.2017 10.6274V8.35748H47.5235V10.6274C47.5235 11.3378 46.9548 11.9137 46.2532 11.9137H42.2409Z" fill="#282832"/>
<path d="M105.72 11.9137V24.9999H101.964V11.9137H97.9514C97.2498 11.9137 96.6811 11.3378 96.6811 10.6274V8.35748H111.003V10.6274C111.003 11.3378 110.434 11.9137 109.733 11.9137H105.72Z" fill="#282832"/>
<path d="M58.4147 18.8184C61.7252 18.747 63.9322 16.6787 63.9322 13.588C63.9322 10.4735 61.7017 8.35748 58.18 8.35748H49.9633V24.9998H53.7198V18.8184L59.5887 24.9998H64.5192L58.4147 18.8184ZM53.7198 15.7276V11.5671H58.18C59.2365 11.5671 60.1756 12.1495 60.1756 13.6473C60.1756 15.1451 59.2365 15.7276 58.18 15.7276H53.7198Z" fill="#282832"/>
<path d="M79.2331 8.35748V11.5671H70.546V14.8956H78.7635V18.1052H70.546V21.7902H79.2331V24.9998H66.7894V8.35748H79.2331Z" fill="#282832"/>
<path d="M125.886 8.35748V11.5671H117.199V14.8956H125.417V18.1052H117.199V21.7902H125.886V24.9998H113.443V8.35748H125.886Z" fill="#282832"/>
<path d="M91.5663 8.35748H87.8097L81.1184 24.9998H84.9923L86.2836 21.6714H93.0923L94.3836 24.9998H98.2576L91.5663 8.35748ZM87.5281 18.4618L89.6294 12.3992H89.7468L91.8481 18.4618H87.5281Z" fill="#282832"/>
<path d="M135.017 24.9998H128.326V8.35748H135.017C139.807 8.35748 143 11.4657 143 16.6787C143 21.8916 139.807 24.9998 135.017 24.9998ZM134.782 11.5671H132.082V21.7902H134.782C137.623 21.7902 139.243 20.126 139.243 16.6787C139.243 13.2314 137.623 11.5671 134.782 11.5671Z" fill="#282832"/>
<path d="M19.0557 8.35755C18.1569 10.5354 16.0334 12.0658 13.5567 12.0658C11.08 12.0658 8.95651 10.5354 8.05766 8.35755H0V12.5182C0 14.816 1.83955 16.6788 4.10876 16.6788H9.14809V25H13.5567H17.9653V16.6787H23.0046C25.2738 16.6787 27.1134 14.816 27.1134 12.5181V8.35748H19.0557V8.35755Z" fill="#282832"/>
<path d="M19.5144 6.03285C19.5144 2.70099 16.8471 -3.05176e-05 13.5567 -3.05176e-05C10.2664 -3.05176e-05 7.59906 2.70099 7.59906 6.03285C7.59906 6.85677 7.76241 7.64198 8.05772 8.35746H19.0558C19.3511 7.64198 19.5144 6.85677 19.5144 6.03285Z" fill="#282832"/>
</svg>
